<?xml version="1.0" encoding="UTF-8"?>
<svg width="184px" height="74px" viewBox="0 0 184 74" version="1.1" xmlns="http://www.w3.org/2000/svg" xmlns:xlink="http://www.w3.org/1999/xlink">
    <!-- Generator: sketchtool 52.6 (67491) - http://www.bohemiancoding.com/sketch -->
    <title>11C7860E-F011-48A0-9D03-7E708B63D697</title>
    <desc>Created with sketchtool.</desc>
    <defs>
        <polygon id="path-1" points="0 74 184 74 184 0 0 0"></polygon>
        <path d="M20.194,0 C19.82,1.759 18.958,3.434 17.594,4.801 L12.346,10.051 L7.103,4.801 C5.738,3.434 4.877,1.759 4.502,0 L0.146,0 C0.563,2.865 1.873,5.626 4.074,7.831 L9.32,13.083 L4.074,18.336 C-1.358,23.775 -1.358,32.593 4.074,38.035 L9.32,43.288 L4.074,48.54 C1.873,50.746 0.563,53.506 0.146,56.372 L4.502,56.372 C4.877,54.612 5.738,52.936 7.103,51.57 L12.346,46.32 L17.594,51.57 C18.958,52.936 19.82,54.612 20.194,56.372 L24.55,56.372 C24.132,53.506 22.822,50.746 20.62,48.54 L15.376,43.288 L20.62,38.035 C26.054,32.593 26.054,23.775 20.62,18.336 L15.376,13.083 L20.62,7.831 C22.822,5.626 24.131,2.865 24.548,0 L20.194,0 Z M13.375,17.143 L16.234,20.007 L13.375,22.871 L13.375,17.143 Z M8.463,20.002 L11.32,17.143 L11.32,22.864 L8.463,20.002 Z M4.8,25.057 C5.247,23.747 5.985,22.516 7.01,21.458 L11.32,25.773 L11.32,31.585 L4.8,25.057 Z M13.375,25.779 L17.688,21.46 C18.714,22.516 19.449,23.749 19.895,25.059 L13.375,31.587 L13.375,25.779 Z M7.103,35.004 C5.041,32.94 4.11,30.172 4.307,27.472 L11.32,34.495 L11.32,39.229 L7.103,35.004 Z M13.375,34.496 L20.386,27.475 C20.587,30.174 19.656,32.94 17.594,35.004 L13.375,39.229 L13.375,34.496 Z" id="path-3"></path>
        <linearGradient x1="50.0000028%" y1="99.9999995%" x2="50.0000028%" y2="-3.37046761e-06%" id="linearGradient-5">
            <stop stop-color="#44D62B" offset="0%"></stop>
            <stop stop-color="#00BFA3" offset="100%"></stop>
        </linearGradient>
    </defs>
    <g id="Page-1" stroke="none" stroke-width="1" fill="none" fill-rule="evenodd">
        <g id="Home" transform="translate(-105.000000, -24.000000)">
            <g id="Header-4-Copy">
                <g id="logo-crag-desktop" transform="translate(105.000000, 24.000000)">
                    <g id="Group-10">
                        <path d="M144.1064,29.1865 C144.2384,28.0635 144.3404,26.5735 144.2114,25.0325 L130.0904,25.0325 L130.0904,31.0725 L135.8664,31.0725 C134.4964,33.7695 132.0084,35.5245 128.8904,35.5245 C124.2544,35.5245 120.5584,31.2755 120.5584,26.2085 C120.5584,21.0235 124.2484,16.7065 128.8904,16.7065 C131.8634,16.7065 134.4024,18.5195 135.5834,20.6725 L143.6274,20.6725 C141.7354,13.9455 136.1944,9.9005 128.8904,9.9005 C119.6164,9.9005 112.9684,17.2035 112.9684,26.1465 C112.9684,35.0865 119.6164,42.2705 128.8904,42.2705 C136.3874,42.2705 141.9904,38.1415 143.7844,31.1425 C143.7844,31.1425 143.9654,30.3705 144.1064,29.1865 Z M95.0794,35.3425 C90.4494,35.3425 86.7454,31.3465 86.7454,26.2085 C86.7454,20.8895 90.4454,16.8885 95.0794,16.8885 C99.7134,16.8885 103.4094,21.0775 103.4094,26.2085 C103.4094,31.2215 99.7104,35.3425 95.0794,35.3425 Z M95.0794,9.9005 C85.7444,9.9005 79.2184,17.2005 79.2184,26.1465 C79.2184,35.0385 85.8754,42.2095 93.9824,42.2095 C98.0794,42.2095 101.1074,40.7965 103.8354,37.7855 L103.8354,41.5395 L110.8774,41.5395 L110.8774,26.1465 C110.8774,17.2005 104.3514,9.9005 95.0794,9.9005 Z M63.7834,23.6455 L63.7834,41.5395 L71.2484,41.5395 L71.2484,23.6455 C71.2484,19.0835 74.7004,16.2595 79.7814,17.0225 L79.7814,10.0525 C69.6864,8.9225 63.7834,14.9835 63.7834,23.6455 Z M53.4694,31.4995 C52.3414,33.7205 49.7354,35.5245 46.7114,35.5245 C42.0744,35.5245 38.3814,31.2755 38.3814,26.2085 C38.3814,21.0235 42.0684,16.7065 46.7114,16.7065 C49.6824,16.7065 52.2244,18.5195 53.4024,20.6725 L61.4474,20.6725 C59.5574,13.9455 54.0134,9.9005 46.7114,9.9005 C37.4374,9.9005 30.7914,17.2035 30.7914,26.1465 C30.7914,35.0865 37.4344,42.2705 46.7114,42.2705 C54.0764,42.2705 59.6184,38.2825 61.5064,31.4995 L53.4694,31.4995 Z" id="Fill-1" fill="#382F2D"></path>
                        <path d="M154.959,24.998 C154.959,24.998 159.261,23.182 159.176,20.014 L151.078,20.014 L151.078,6.161 L165.209,6.161 L165.209,19.592 C165.209,23.266 163.394,26.476 158.205,28.588 L154.959,24.998 Z" id="Fill-3" fill="#E87722"></path>
                        <path d="M156.9502,10.7861 L158.0682,10.7861 C158.9772,10.7861 159.2502,11.1061 159.2502,11.6621 C159.2502,12.4521 158.6412,12.5391 158.1982,12.5391 L156.9502,12.5391 L156.9502,10.7861 Z M154.5612,17.5011 L156.9502,17.5011 L156.9502,14.4281 L158.2212,14.4281 C159.1622,14.4281 159.2272,15.3031 159.2942,16.1441 C159.3252,16.6001 159.3702,17.0571 159.4892,17.5011 L161.8772,17.5011 C161.6592,17.0941 161.6492,16.0451 161.6172,15.6121 C161.5292,14.5141 161.1272,13.6991 160.4762,13.4151 C161.2682,13.0811 161.6372,12.1191 161.6372,11.2051 C161.6372,9.5381 160.4662,8.6871 159.1082,8.6871 L154.5612,8.6871 L154.5612,17.5011 Z" id="Fill-5" fill="#FFFFFF"></path>
                        <mask id="mask-2" fill="white">
                            <use xlink:href="#path-1"></use>
                        </mask>
                        <g id="Clip-8"></g>
                        <path d="M32.51,73.796 L33.689,73.796 L33.689,64.077 L32.51,64.077 L32.51,73.796 Z M35.551,64.077 L35.551,73.796 L36.57,73.796 L36.57,65.52 L40.616,73.796 L41.78,73.796 L41.78,64.077 L40.761,64.077 L40.761,71.756 L37.05,64.077 L35.551,64.077 Z M48.328,64.077 L45.607,73.796 L46.8,73.796 L47.499,71.013 L50.409,71.013 L51.122,73.796 L52.315,73.796 L49.725,64.077 L48.328,64.077 Z M47.732,70.066 L48.954,65.228 L50.162,70.066 L47.732,70.066 Z M56.277,68.988 L56.277,69.964 L58.256,69.964 C58.27,70.59 58.314,73.009 56.291,73.009 C54.269,73.009 54.021,70.445 54.021,68.915 C54.021,66.598 54.574,64.864 56.291,64.864 C57.659,64.864 57.979,65.972 58.256,66.948 L59.318,66.54 C58.954,65.126 58.314,63.873 56.32,63.873 C53.279,63.873 52.77,66.933 52.77,69.017 C52.77,70.62 53.192,74 56.102,74 C57.688,74 58.183,73.053 58.43,72.601 L58.59,73.927 L59.405,73.927 L59.405,68.988 L56.277,68.988 Z M61.181,64.077 L61.181,73.796 L62.359,73.796 L62.359,69.556 L64.222,69.556 L65.852,73.796 L67.118,73.796 L65.299,69.279 C65.721,69.075 66.9,68.492 66.9,66.729 C66.9,65.666 66.434,64.966 65.968,64.616 C65.284,64.092 64.164,64.077 64.004,64.077 L61.181,64.077 Z M63.917,65.054 C64.644,65.054 65.721,65.316 65.721,66.715 C65.721,67.764 65.197,68.58 63.829,68.58 L62.359,68.58 L62.359,65.054 L63.917,65.054 Z M68.471,73.796 L69.65,73.796 L69.65,64.077 L68.471,64.077 L68.471,73.796 Z M76.489,70.751 C76.14,72.426 75.718,73.009 74.626,73.009 C72.647,73.009 72.429,70.299 72.429,68.944 C72.429,67.982 72.487,64.864 74.626,64.864 C76.038,64.864 76.3,66.161 76.489,67.108 L77.61,66.831 C77.435,65.942 76.984,63.873 74.597,63.873 C71.381,63.873 71.178,67.647 71.178,68.973 C71.178,70.896 71.614,74 74.554,74 C76.766,74 77.29,72.47 77.551,71.013 L76.489,70.751 Z M78.846,64.077 L78.846,70.503 C78.846,71.96 78.919,74 81.757,74 C84.74,74 84.74,71.844 84.74,70.386 L84.74,64.077 L83.634,64.077 L83.634,70.445 C83.634,71.712 83.634,73.009 81.8,73.009 C80.025,73.009 80.025,71.785 80.025,70.503 L80.025,64.077 L78.846,64.077 Z M86.632,64.077 L86.632,73.796 L91.492,73.796 L91.492,72.82 L87.81,72.82 L87.81,64.077 L86.632,64.077 Z M90.504,64.077 L90.504,65.068 L92.818,65.068 L92.818,73.796 L93.997,73.796 L93.997,65.068 L96.325,65.068 L96.325,64.077 L90.504,64.077 Z M96.892,64.077 L96.892,70.503 C96.892,71.96 96.965,74 99.803,74 C102.786,74 102.786,71.844 102.786,70.386 L102.786,64.077 L101.68,64.077 L101.68,70.445 C101.68,71.712 101.68,73.009 99.846,73.009 C98.071,73.009 98.071,71.785 98.071,70.503 L98.071,64.077 L96.892,64.077 Z M104.678,64.077 L104.678,73.796 L105.856,73.796 L105.856,69.556 L107.719,69.556 L109.349,73.796 L110.615,73.796 L108.796,69.279 C109.218,69.075 110.397,68.492 110.397,66.729 C110.397,65.666 109.931,64.966 109.465,64.616 C108.781,64.092 107.661,64.077 107.501,64.077 L104.678,64.077 Z M107.413,65.054 C108.141,65.054 109.218,65.316 109.218,66.715 C109.218,67.764 108.694,68.58 107.326,68.58 L105.856,68.58 L105.856,65.054 L107.413,65.054 Z M113.903,64.077 L111.182,73.796 L112.375,73.796 L113.074,71.013 L115.984,71.013 L116.697,73.796 L117.891,73.796 L115.3,64.077 L113.903,64.077 Z M113.307,70.066 L114.529,65.228 L115.737,70.066 L113.307,70.066 Z M119.011,64.077 L119.011,73.796 L123.871,73.796 L123.871,72.82 L120.19,72.82 L120.19,64.077 L119.011,64.077 Z M130.464,68.988 L130.464,69.964 L132.443,69.964 C132.457,70.59 132.501,73.009 130.478,73.009 C128.455,73.009 128.208,70.445 128.208,68.915 C128.208,66.598 128.761,64.864 130.478,64.864 C131.846,64.864 132.166,65.972 132.443,66.948 L133.505,66.54 C133.141,65.126 132.501,63.873 130.507,63.873 C127.466,63.873 126.956,66.933 126.956,69.017 C126.956,70.62 127.378,74 130.289,74 C131.875,74 132.37,73.053 132.617,72.601 L132.777,73.927 L133.592,73.927 L133.592,68.988 L130.464,68.988 Z M135.368,64.077 L135.368,73.796 L140.766,73.796 L140.766,72.82 L136.546,72.82 L136.546,69.25 L139.777,69.25 L139.777,68.274 L136.546,68.274 L136.546,65.054 L140.65,65.054 L140.65,64.077 L135.368,64.077 Z M141.872,64.077 L141.872,73.796 L142.891,73.796 L142.891,65.52 L146.936,73.796 L148.101,73.796 L148.101,64.077 L147.082,64.077 L147.082,71.756 L143.371,64.077 L141.872,64.077 Z M153.048,63.873 C150.08,63.873 149.57,66.904 149.57,68.944 C149.57,70.882 150.036,74 153.048,74 C155.944,74 156.468,71.071 156.468,68.944 C156.468,66.773 155.93,63.873 153.048,63.873 Z M153.019,64.85 C153.936,64.85 154.372,65.287 154.693,65.899 C155.1,66.656 155.246,67.822 155.246,68.944 C155.246,69.949 155.129,71.173 154.693,71.989 C154.358,72.616 153.892,73.024 153.048,73.024 C152.219,73.024 151.724,72.703 151.346,71.975 C150.938,71.202 150.793,70.037 150.793,68.944 C150.793,67.909 150.924,66.7 151.346,65.884 C151.695,65.228 152.175,64.85 153.019,64.85 Z M157.952,73.796 L158.971,73.796 L158.971,65.36 L161.416,73.796 L162.274,73.796 L164.777,65.374 L164.777,73.796 L165.883,73.796 L165.883,64.077 L164.224,64.077 L161.94,71.902 L159.655,64.077 L157.952,64.077 L157.952,73.796 Z M167.76,73.796 L168.94,73.796 L168.94,64.077 L167.76,64.077 L167.76,73.796 Z M175.778,70.751 C175.429,72.426 175.007,73.009 173.916,73.009 C171.936,73.009 171.718,70.299 171.718,68.944 C171.718,67.982 171.776,64.864 173.916,64.864 C175.327,64.864 175.589,66.161 175.778,67.108 L176.899,66.831 C176.724,65.942 176.273,63.873 173.886,63.873 C170.67,63.873 170.467,67.647 170.467,68.973 C170.467,70.896 170.903,74 173.843,74 C176.055,74 176.579,72.47 176.841,71.013 L175.778,70.751 Z M183.709,66.292 C183.505,65.593 182.996,63.873 180.813,63.873 C178.805,63.873 177.946,65.258 177.946,66.438 C177.946,67.166 178.281,67.909 178.79,68.361 C179.3,68.813 179.751,68.988 180.871,69.425 C181.788,69.775 182.778,70.197 182.778,71.348 C182.778,71.989 182.385,73.009 180.93,73.009 C179.111,73.009 178.776,71.581 178.63,70.94 L177.553,71.246 C177.655,71.771 177.83,72.557 178.514,73.184 C179.125,73.752 180.071,74 180.9,74 C183.185,74 184,72.368 184,71.159 C184,69.294 182.37,68.667 181.235,68.23 C179.896,67.72 179.096,67.399 179.096,66.38 C179.096,65.87 179.387,64.864 180.711,64.864 C182.05,64.864 182.399,65.811 182.661,66.598 L183.709,66.292 Z" id="Fill-7" fill="#605957" mask="url(#mask-2)"></path>
                        <path d="M37.4434,56.6738 C37.0944,58.3498 36.6724,58.9318 35.5804,58.9318 C33.6014,58.9318 33.3834,56.2218 33.3834,54.8668 C33.3834,53.9058 33.4414,50.7868 35.5804,50.7868 C36.9924,50.7868 37.2544,52.0838 37.4434,53.0308 L38.5644,52.7538 C38.3894,51.8658 37.9384,49.7968 35.5514,49.7968 C32.3354,49.7968 32.1314,53.5698 32.1314,54.8968 C32.1314,56.8198 32.5684,59.9228 35.5084,59.9228 C37.7194,59.9228 38.2434,58.3928 38.5054,56.9358 L37.4434,56.6738 Z M39.8004,50.0008 L39.8004,59.7188 L45.1994,59.7188 L45.1994,58.7428 L40.9794,58.7428 L40.9794,55.1728 L44.2104,55.1728 L44.2104,54.1968 L40.9794,54.1968 L40.9794,50.9768 L45.0834,50.9768 L45.0834,50.0008 L39.8004,50.0008 Z M46.3054,50.0008 L46.3054,59.7188 L47.3244,59.7188 L47.3244,51.4438 L51.3694,59.7188 L52.5334,59.7188 L52.5334,50.0008 L51.5154,50.0008 L51.5154,57.6788 L47.8044,50.0008 L46.3054,50.0008 Z M53.2034,50.0008 L53.2034,50.9908 L55.5164,50.9908 L55.5164,59.7188 L56.6954,59.7188 L56.6954,50.9908 L59.0234,50.9908 L59.0234,50.0008 L53.2034,50.0008 Z M59.5914,50.0008 L59.5914,59.7188 L60.7694,59.7188 L60.7694,55.4788 L62.6324,55.4788 L64.2624,59.7188 L65.5284,59.7188 L63.7094,55.2018 C64.1314,54.9978 65.3104,54.4158 65.3104,52.6528 C65.3104,51.5888 64.8444,50.8888 64.3784,50.5398 C63.6944,50.0148 62.5744,50.0008 62.4144,50.0008 L59.5914,50.0008 Z M62.3274,50.9768 C63.0544,50.9768 64.1314,51.2388 64.1314,52.6378 C64.1314,53.6868 63.6074,54.5028 62.2394,54.5028 L60.7694,54.5028 L60.7694,50.9768 L62.3274,50.9768 Z M66.8814,50.0008 L66.8814,59.7188 L72.2804,59.7188 L72.2804,58.7428 L68.0604,58.7428 L68.0604,55.1728 L71.2904,55.1728 L71.2904,54.1968 L68.0604,54.1968 L68.0604,50.9768 L72.1644,50.9768 L72.1644,50.0008 L66.8814,50.0008 Z M76.1944,50.0008 L76.1944,59.7188 L77.3734,59.7188 L77.3734,55.1728 L80.5894,55.1728 L80.5894,54.1968 L77.3734,54.1968 L77.3734,50.9768 L81.2884,50.9768 L81.2884,50.0008 L76.1944,50.0008 Z M85.1004,49.7968 C82.1324,49.7968 81.6224,52.8268 81.6224,54.8668 C81.6224,56.8048 82.0884,59.9228 85.1004,59.9228 C87.9964,59.9228 88.5204,56.9948 88.5204,54.8668 C88.5204,52.6958 87.9824,49.7968 85.1004,49.7968 Z M85.0714,50.7738 C85.9884,50.7738 86.4254,51.2098 86.7454,51.8218 C87.1524,52.5798 87.2984,53.7448 87.2984,54.8668 C87.2984,55.8728 87.1814,57.0968 86.7454,57.9118 C86.4104,58.5388 85.9444,58.9468 85.1004,58.9468 C84.2714,58.9468 83.7764,58.6258 83.3984,57.8988 C82.9904,57.1258 82.8454,55.9598 82.8454,54.8668 C82.8454,53.8328 82.9764,52.6228 83.3984,51.8068 C83.7474,51.1528 84.2274,50.7738 85.0714,50.7738 Z M90.0334,50.0008 L90.0334,59.7188 L91.2124,59.7188 L91.2124,55.4788 L93.0754,55.4788 L94.7054,59.7188 L95.9714,59.7188 L94.1524,55.2018 C94.5744,54.9978 95.7524,54.4158 95.7524,52.6528 C95.7524,51.5888 95.2874,50.8888 94.8214,50.5398 C94.1374,50.0148 93.0174,50.0008 92.8574,50.0008 L90.0334,50.0008 Z M92.7694,50.9768 C93.4974,50.9768 94.5744,51.2388 94.5744,52.6378 C94.5744,53.6868 94.0504,54.5028 92.6824,54.5028 L91.2124,54.5028 L91.2124,50.9768 L92.7694,50.9768 Z M100.2344,50.0008 L100.2344,59.7188 L101.4134,59.7188 L101.4134,55.4788 L103.2764,55.4788 L104.9054,59.7188 L106.1724,59.7188 L104.3534,55.2018 C104.7754,54.9978 105.9534,54.4158 105.9534,52.6528 C105.9534,51.5888 105.4884,50.8888 105.0224,50.5398 C104.3394,50.0148 103.2174,50.0008 103.0574,50.0008 L100.2344,50.0008 Z M102.9704,50.9768 C103.6984,50.9768 104.7754,51.2388 104.7754,52.6378 C104.7754,53.6868 104.2514,54.5028 102.8834,54.5028 L101.4134,54.5028 L101.4134,50.9768 L102.9704,50.9768 Z M107.5254,50.0008 L107.5254,59.7188 L112.9234,59.7188 L112.9234,58.7428 L108.7034,58.7428 L108.7034,55.1728 L111.9344,55.1728 L111.9344,54.1968 L108.7034,54.1968 L108.7034,50.9768 L112.8074,50.9768 L112.8074,50.0008 L107.5254,50.0008 Z M119.6464,52.2148 C119.4434,51.5158 118.9334,49.7968 116.7514,49.7968 C114.7424,49.7968 113.8844,51.1808 113.8844,52.3618 C113.8844,53.0898 114.2194,53.8328 114.7284,54.2838 C115.2374,54.7368 115.6884,54.9108 116.8094,55.3478 C117.7264,55.6978 118.7154,56.1198 118.7154,57.2718 C118.7154,57.9118 118.3224,58.9318 116.8674,58.9318 C115.0484,58.9318 114.7144,57.5048 114.5684,56.8628 L113.4914,57.1688 C113.5934,57.6948 113.7674,58.4818 114.4514,59.1078 C115.0634,59.6758 116.0084,59.9228 116.8394,59.9228 C119.1234,59.9228 119.9384,58.2908 119.9384,57.0818 C119.9384,55.2168 118.3084,54.5898 117.1734,54.1528 C115.8344,53.6428 115.0334,53.3228 115.0334,52.3028 C115.0334,51.7928 115.3244,50.7868 116.6494,50.7868 C117.9884,50.7868 118.3374,51.7358 118.5994,52.5218 L119.6464,52.2148 Z M121.3634,50.0008 L121.3634,59.7188 L126.7624,59.7188 L126.7624,58.7428 L122.5424,58.7428 L122.5424,55.1728 L125.7734,55.1728 L125.7734,54.1968 L122.5424,54.1968 L122.5424,50.9768 L126.6464,50.9768 L126.6464,50.0008 L121.3634,50.0008 Z M129.8474,50.0008 L127.1264,59.7188 L128.3194,59.7188 L129.0184,56.9358 L131.9284,56.9358 L132.6414,59.7188 L133.8344,59.7188 L131.2444,50.0008 L129.8474,50.0008 Z M129.2514,55.9888 L130.4734,51.1528 L131.6814,55.9888 L129.2514,55.9888 Z M134.9554,50.0008 L134.9554,59.7188 L136.1344,59.7188 L136.1344,55.4788 L137.9964,55.4788 L139.6264,59.7188 L140.8924,59.7188 L139.0734,55.2018 C139.4954,54.9978 140.6744,54.4158 140.6744,52.6528 C140.6744,51.5888 140.2084,50.8888 139.7424,50.5398 C139.0584,50.0148 137.9384,50.0008 137.7784,50.0008 L134.9554,50.0008 Z M137.6914,50.9768 C138.4184,50.9768 139.4954,51.2388 139.4954,52.6378 C139.4954,53.6868 138.9714,54.5028 137.6034,54.5028 L136.1344,54.5028 L136.1344,50.9768 L137.6914,50.9768 Z M147.1784,56.6738 C146.8294,58.3498 146.4074,58.9318 145.3164,58.9318 C143.3374,58.9318 143.1184,56.2218 143.1184,54.8668 C143.1184,53.9058 143.1774,50.7868 145.3164,50.7868 C146.7274,50.7868 146.9894,52.0838 147.1784,53.0308 L148.2994,52.7538 C148.1244,51.8658 147.6734,49.7968 145.2874,49.7968 C142.0714,49.7968 141.8674,53.5698 141.8674,54.8968 C141.8674,56.8198 142.3034,59.9228 145.2434,59.9228 C147.4554,59.9228 147.9794,58.3928 148.2414,56.9358 L147.1784,56.6738 Z M149.5364,59.7188 L150.7144,59.7188 L150.7144,55.0998 L154.2514,55.0998 L154.2514,59.7188 L155.4294,59.7188 L155.4294,50.0008 L154.2514,50.0008 L154.2514,54.1238 L150.7144,54.1238 L150.7144,50.0008 L149.5364,50.0008 L149.5364,59.7188 Z" id="Fill-9" fill="#605957" mask="url(#mask-2)"></path>
                    </g>
                    <g id="Group-13">
                        <mask id="mask-4" fill="white">
                            <use xlink:href="#path-3"></use>
                        </mask>
                        <g id="Clip-12"></g>
                        <path d="M20.194,0 C19.82,1.759 18.958,3.434 17.594,4.801 L12.346,10.051 L7.103,4.801 C5.738,3.434 4.877,1.759 4.502,0 L0.146,0 C0.563,2.865 1.873,5.626 4.074,7.831 L9.32,13.083 L4.074,18.336 C-1.358,23.775 -1.358,32.593 4.074,38.035 L9.32,43.288 L4.074,48.54 C1.873,50.746 0.563,53.506 0.146,56.372 L4.502,56.372 C4.877,54.612 5.738,52.936 7.103,51.57 L12.346,46.32 L17.594,51.57 C18.958,52.936 19.82,54.612 20.194,56.372 L24.55,56.372 C24.132,53.506 22.822,50.746 20.62,48.54 L15.376,43.288 L20.62,38.035 C26.054,32.593 26.054,23.775 20.62,18.336 L15.376,13.083 L20.62,7.831 C22.822,5.626 24.131,2.865 24.548,0 L20.194,0 Z M13.375,17.143 L16.234,20.007 L13.375,22.871 L13.375,17.143 Z M8.463,20.002 L11.32,17.143 L11.32,22.864 L8.463,20.002 Z M4.8,25.057 C5.247,23.747 5.985,22.516 7.01,21.458 L11.32,25.773 L11.32,31.585 L4.8,25.057 Z M13.375,25.779 L17.688,21.46 C18.714,22.516 19.449,23.749 19.895,25.059 L13.375,31.587 L13.375,25.779 Z M7.103,35.004 C5.041,32.94 4.11,30.172 4.307,27.472 L11.32,34.495 L11.32,39.229 L7.103,35.004 Z M13.375,34.496 L20.386,27.475 C20.587,30.174 19.656,32.94 17.594,35.004 L13.375,39.229 L13.375,34.496 Z" id="Fill-11" fill="url(#linearGradient-5)" mask="url(#mask-4)"></path>
                    </g>
                </g>
            </g>
        </g>
    </g>
</svg>